# xmcd CD database file
#
# Track frame offsets:
#	182
#	23445
#	56750
#	87277
#	117172
#	136350
#	158482
#	174232
#	203630
#	227027
#	245457
#	272662
#
# Disc length: 3916 seconds
#
# Revision: 0
# Processed by: cddbd v1.5.2PL0 Copyright (c) Steve Scherf et al.
# Submitted via: CDex 1.51
#
DISCID=900f4a0c
DTITLE=Joe Louis Walker - Gitans Blues
DYEAR=1999
DGENRE=Blues
TTITLE0=Bad Thing
TTITLE1=Part Of Me
TTITLE2=Shake For Me
TTITLE3=Inner City Man
TTITLE4=Got To Find My Baby
TTITLE5=Two Trains Runnin'
TTITLE6=Vineyard Blues
TTITLE7=Bluesifyin'
TTITLE8=Blues Of The Month Club
TTITLE9=Preacher And The President
TTITLE10=Every Gorl I See
TTITLE11=High Blood Pressure
EXTD=YEAR: 1999
EXTT0=
EXTT1=
EXTT2=
EXTT3=
EXTT4=
EXTT5=
EXTT6=
EXTT7=
EXTT8=
EXTT9=
EXTT10=
EXTT11=
PLAYORDER=
